{
  "fixture": "chai-milestone-0-canonical",
  "passed": true,
  "assertions": {
    "timelineRate": true,
    "audioSampleRates": true,
    "alphaPixelFormat": true,
    "alphaSequenceFrames": true
  },
  "hashes": {
    "assets/raw-video.mp4": "72eb5e9db29949b52fe63c3162cb4b570d99c92de718386ae295946cb04c0789",
    "fixture-image.svg": "44259ba08b48a3a2a283ea93df4b47664bbdc7cbeb45a1f15b11f7e6b267ea0b",
    "captions.vtt": "223541eac1cff00a288c5a3e23a7c9f3b81337be0b172d632b587cbc9e2c4c78",
    "assets/voiceover.wav": "71c570afb4ce06f1585898f85397f2015ae12a8f2e4035efe050b540895ccd9f",
    "assets/music.wav": "003832db25c0b7b9bb685426c4b30ca5add4e3809467448c0e1b92e71cdf586c",
    "assets/offline-mix.wav": "ba2fb31a5b2dd436b1898af3595a105e93c7868003586051da8a51e95ad180f0",
    "assets/alpha-overlay.mov": "6cbdd7340ba60390321870775ece758bd136fce26ba2f2f92a03222659f0fa77"
  },
  "media": {
    "rawVideo": {
      "streams": [
        {
          "index": 0,
          "codec_name": "h264",
          "codec_long_name": "H.264 / AVC / MPEG-4 AVC / MPEG-4 part 10",
          "profile": "High",
          "codec_type": "video",
          "codec_tag_string": "avc1",
          "codec_tag": "0x31637661",
          "width": 640,
          "height": 360,
          "coded_width": 640,
          "coded_height": 360,
          "closed_captions": 0,
          "film_grain": 0,
          "has_b_frames": 2,
          "sample_aspect_ratio": "1:1",
          "display_aspect_ratio": "16:9",
          "pix_fmt": "yuv420p",
          "level": 30,
          "chroma_location": "left",
          "field_order": "progressive",
          "refs": 1,
          "is_avc": "true",
          "nal_length_size": "4",
          "id": "0x1",
          "r_frame_rate": "30000/1001",
          "avg_frame_rate": "30000/1001",
          "time_base": "1/30000",
          "start_pts": 0,
          "start_time": "0.000000",
          "duration_ts": 300300,
          "duration": "10.010000",
          "bit_rate": "795912",
          "bits_per_raw_sample": "8",
          "nb_frames": "300",
          "extradata_size": 46,
          "disposition": {
            "default": 1,
            "dub": 0,
            "original": 0,
            "comment": 0,
            "lyrics": 0,
            "karaoke": 0,
            "forced": 0,
            "hearing_impaired": 0,
            "visual_impaired": 0,
            "clean_effects": 0,
            "attached_pic": 0,
            "timed_thumbnails": 0,
            "non_diegetic": 0,
            "captions": 0,
            "descriptions": 0,
            "metadata": 0,
            "dependent": 0,
            "still_image": 0,
            "multilayer": 0
          },
          "tags": {
            "language": "und",
            "handler_name": "VideoHandler",
            "vendor_id": "[0][0][0][0]",
            "encoder": "Lavc61.19.101 libx264"
          }
        }
      ],
      "format": {
        "filename": "/Users/praveengupta/Desktop/studio2/chai-studio/spikes/milestone-0/fixtures/canonical/assets/raw-video.mp4",
        "nb_streams": 1,
        "nb_programs": 0,
        "nb_stream_groups": 0,
        "format_name": "mov,mp4,m4a,3gp,3g2,mj2",
        "format_long_name": "QuickTime / MOV",
        "start_time": "0.000000",
        "duration": "10.010000",
        "size": "1000187",
        "bit_rate": "799350",
        "probe_score": 100,
        "tags": {
          "major_brand": "isom",
          "minor_version": "512",
          "compatible_brands": "isomiso2avc1mp41",
          "encoder": "Lavf61.7.100"
        }
      }
    },
    "voiceover": {
      "streams": [
        {
          "index": 0,
          "codec_name": "pcm_s24le",
          "codec_long_name": "PCM signed 24-bit little-endian",
          "codec_type": "audio",
          "codec_tag_string": "[1][0][0][0]",
          "codec_tag": "0x0001",
          "sample_fmt": "s32",
          "sample_rate": "48000",
          "channels": 1,
          "channel_layout": "mono",
          "bits_per_sample": 24,
          "initial_padding": 0,
          "r_frame_rate": "0/0",
          "avg_frame_rate": "0/0",
          "time_base": "1/48000",
          "duration_ts": 480480,
          "duration": "10.010000",
          "bit_rate": "1152000",
          "bits_per_raw_sample": "24",
          "disposition": {
            "default": 0,
            "dub": 0,
            "original": 0,
            "comment": 0,
            "lyrics": 0,
            "karaoke": 0,
            "forced": 0,
            "hearing_impaired": 0,
            "visual_impaired": 0,
            "clean_effects": 0,
            "attached_pic": 0,
            "timed_thumbnails": 0,
            "non_diegetic": 0,
            "captions": 0,
            "descriptions": 0,
            "metadata": 0,
            "dependent": 0,
            "still_image": 0,
            "multilayer": 0
          }
        }
      ],
      "format": {
        "filename": "/Users/praveengupta/Desktop/studio2/chai-studio/spikes/milestone-0/fixtures/canonical/assets/voiceover.wav",
        "nb_streams": 1,
        "nb_programs": 0,
        "nb_stream_groups": 0,
        "format_name": "wav",
        "format_long_name": "WAV / WAVE (Waveform Audio)",
        "duration": "10.010000",
        "size": "1441542",
        "bit_rate": "1152081",
        "probe_score": 99,
        "tags": {
          "encoder": "Lavf61.7.100"
        }
      }
    },
    "music": {
      "streams": [
        {
          "index": 0,
          "codec_name": "pcm_s24le",
          "codec_long_name": "PCM signed 24-bit little-endian",
          "codec_type": "audio",
          "codec_tag_string": "[1][0][0][0]",
          "codec_tag": "0x0001",
          "sample_fmt": "s32",
          "sample_rate": "48000",
          "channels": 1,
          "channel_layout": "mono",
          "bits_per_sample": 24,
          "initial_padding": 0,
          "r_frame_rate": "0/0",
          "avg_frame_rate": "0/0",
          "time_base": "1/48000",
          "duration_ts": 480480,
          "duration": "10.010000",
          "bit_rate": "1152000",
          "bits_per_raw_sample": "24",
          "disposition": {
            "default": 0,
            "dub": 0,
            "original": 0,
            "comment": 0,
            "lyrics": 0,
            "karaoke": 0,
            "forced": 0,
            "hearing_impaired": 0,
            "visual_impaired": 0,
            "clean_effects": 0,
            "attached_pic": 0,
            "timed_thumbnails": 0,
            "non_diegetic": 0,
            "captions": 0,
            "descriptions": 0,
            "metadata": 0,
            "dependent": 0,
            "still_image": 0,
            "multilayer": 0
          }
        }
      ],
      "format": {
        "filename": "/Users/praveengupta/Desktop/studio2/chai-studio/spikes/milestone-0/fixtures/canonical/assets/music.wav",
        "nb_streams": 1,
        "nb_programs": 0,
        "nb_stream_groups": 0,
        "format_name": "wav",
        "format_long_name": "WAV / WAVE (Waveform Audio)",
        "duration": "10.010000",
        "size": "1441542",
        "bit_rate": "1152081",
        "probe_score": 99,
        "tags": {
          "encoder": "Lavf61.7.100"
        }
      }
    },
    "offlineMix": {
      "streams": [
        {
          "index": 0,
          "codec_name": "pcm_s24le",
          "codec_long_name": "PCM signed 24-bit little-endian",
          "codec_type": "audio",
          "codec_tag_string": "[1][0][0][0]",
          "codec_tag": "0x0001",
          "sample_fmt": "s32",
          "sample_rate": "48000",
          "channels": 1,
          "channel_layout": "mono",
          "bits_per_sample": 24,
          "initial_padding": 0,
          "r_frame_rate": "0/0",
          "avg_frame_rate": "0/0",
          "time_base": "1/48000",
          "duration_ts": 480480,
          "duration": "10.010000",
          "bit_rate": "1152000",
          "bits_per_raw_sample": "24",
          "disposition": {
            "default": 0,
            "dub": 0,
            "original": 0,
            "comment": 0,
            "lyrics": 0,
            "karaoke": 0,
            "forced": 0,
            "hearing_impaired": 0,
            "visual_impaired": 0,
            "clean_effects": 0,
            "attached_pic": 0,
            "timed_thumbnails": 0,
            "non_diegetic": 0,
            "captions": 0,
            "descriptions": 0,
            "metadata": 0,
            "dependent": 0,
            "still_image": 0,
            "multilayer": 0
          }
        }
      ],
      "format": {
        "filename": "/Users/praveengupta/Desktop/studio2/chai-studio/spikes/milestone-0/fixtures/canonical/assets/offline-mix.wav",
        "nb_streams": 1,
        "nb_programs": 0,
        "nb_stream_groups": 0,
        "format_name": "wav",
        "format_long_name": "WAV / WAVE (Waveform Audio)",
        "duration": "10.010000",
        "size": "1441542",
        "bit_rate": "1152081",
        "probe_score": 99,
        "tags": {
          "encoder": "Lavf61.7.100"
        }
      }
    },
    "alphaVideo": {
      "streams": [
        {
          "index": 0,
          "codec_name": "qtrle",
          "codec_long_name": "QuickTime Animation (RLE) video",
          "codec_type": "video",
          "codec_tag_string": "rle ",
          "codec_tag": "0x20656c72",
          "width": 320,
          "height": 180,
          "coded_width": 320,
          "coded_height": 180,
          "closed_captions": 0,
          "film_grain": 0,
          "has_b_frames": 0,
          "sample_aspect_ratio": "1:1",
          "display_aspect_ratio": "16:9",
          "pix_fmt": "argb",
          "level": -99,
          "field_order": "progressive",
          "refs": 1,
          "id": "0x1",
          "r_frame_rate": "30000/1001",
          "avg_frame_rate": "30000/1001",
          "time_base": "1/30000",
          "start_pts": 0,
          "start_time": "0.000000",
          "duration_ts": 60060,
          "duration": "2.002000",
          "bit_rate": "62817",
          "nb_frames": "60",
          "disposition": {
            "default": 1,
            "dub": 0,
            "original": 0,
            "comment": 0,
            "lyrics": 0,
            "karaoke": 0,
            "forced": 0,
            "hearing_impaired": 0,
            "visual_impaired": 0,
            "clean_effects": 0,
            "attached_pic": 0,
            "timed_thumbnails": 0,
            "non_diegetic": 0,
            "captions": 0,
            "descriptions": 0,
            "metadata": 0,
            "dependent": 0,
            "still_image": 0,
            "multilayer": 0
          },
          "tags": {
            "handler_name": "VideoHandler",
            "vendor_id": "FFMP",
            "encoder": "Lavc61.19.101 qtrle"
          }
        }
      ],
      "format": {
        "filename": "/Users/praveengupta/Desktop/studio2/chai-studio/spikes/milestone-0/fixtures/canonical/assets/alpha-overlay.mov",
        "nb_streams": 1,
        "nb_programs": 0,
        "nb_stream_groups": 0,
        "format_name": "mov,mp4,m4a,3gp,3g2,mj2",
        "format_long_name": "QuickTime / MOV",
        "start_time": "0.000000",
        "duration": "2.002000",
        "size": "16737",
        "bit_rate": "66881",
        "probe_score": 100,
        "tags": {
          "major_brand": "qt  ",
          "minor_version": "512",
          "compatible_brands": "qt  ",
          "encoder": "Lavf61.7.100"
        }
      }
    }
  }
}
